<svg width="7" height="14" viewBox="0 0 7 14" fill="none" xmlns="http://www.w3.org/2000/svg">
<path d="M-6.23222e-05 6.57108C-0.0010137 6.74255 0.0273822 6.91253 0.083496 7.07127C0.13961 7.23001 0.222338 7.37439 0.326938 7.49613L4.84134 12.7077C4.94657 12.8291 5.07152 12.9255 5.20906 12.9912C5.34659 13.057 5.49403 13.0908 5.64294 13.0908C5.79184 13.0908 5.93931 13.057 6.07692 12.9912C6.21453 12.9255 6.33958 12.8291 6.44494 12.7077C6.5503 12.5862 6.63391 12.442 6.69098 12.2832C6.74805 12.1245 6.77747 11.9544 6.77756 11.7826C6.77765 11.6108 6.74841 11.4407 6.69151 11.282C6.63461 11.1233 6.55117 10.979 6.44594 10.8576L2.71026 6.57108L6.30374 2.27157C6.41932 2.15172 6.51224 2.00565 6.57668 1.84252C6.64112 1.67938 6.6757 1.50268 6.67826 1.32346C6.68082 1.14425 6.6513 0.96637 6.59154 0.800963C6.53179 0.635555 6.44309 0.486173 6.33099 0.362157C6.21889 0.238141 6.0858 0.142159 5.94005 0.0802159C5.79429 0.0182729 5.63901 -0.00829839 5.48391 0.00216056C5.32881 0.0126205 5.17723 0.0598874 5.03865 0.141005C4.90007 0.222124 4.77747 0.335346 4.67852 0.473594L0.316617 5.68512C0.117377 5.92339 0.0041538 6.24015 -6.23222e-05 6.57108Z" fill="#121212"/>
</svg>
