<svg width="12" height="12" viewBox="0 0 12 12" fill="none" xmlns="http://www.w3.org/2000/svg">
<path fill-rule="evenodd" clip-rule="evenodd" d="M6.12892 11.9658C4.95127 11.9658 4.404 11.7931 3.45271 11.1024C2.85099 11.8794 0.945556 12.4866 0.862462 11.4478C0.862462 10.6679 0.690542 10.0089 0.4957 9.28943C0.263609 8.40308 0 7.41601 0 5.98576C0 2.56985 2.79082 0 6.0974 0C9.40685 0 12 2.69647 12 6.01741C12.0111 9.287 9.38434 11.9483 6.12892 11.9658ZM6.17763 2.95259C4.56732 2.86913 3.31231 3.98859 3.03437 5.74402C2.80515 7.1973 3.21202 8.96712 3.55873 9.05921C3.72492 9.0995 4.14325 8.75992 4.404 8.49805C4.83515 8.79719 5.33723 8.97686 5.85958 9.01892C7.52813 9.09953 8.95384 7.82374 9.06588 6.14979C9.1311 4.47229 7.84641 3.05146 6.17763 2.95547L6.17763 2.95259Z" fill="white"/>
</svg>
