<svg width="7" height="14" viewBox="0 0 7 14" fill="none" xmlns="http://www.w3.org/2000/svg">
<path d="M6.77741 6.5712C6.77836 6.74267 6.74996 6.91265 6.69385 7.07139C6.63773 7.23013 6.55501 7.37451 6.45041 7.49625L1.93601 12.7078C1.83078 12.8293 1.70583 12.9256 1.56829 12.9914C1.43075 13.0571 1.28332 13.0909 1.13441 13.0909C0.9855 13.0909 0.838031 13.0571 0.700422 12.9914C0.562813 12.9256 0.437759 12.8293 0.3324 12.7078C0.22704 12.5863 0.143438 12.4421 0.0863683 12.2834C0.0292982 12.1246 -0.000122222 11.9545 -0.000214512 11.7827C-0.000306802 11.6109 0.0289308 11.4408 0.0858304 11.2821C0.14273 11.1234 0.226177 10.9792 0.331406 10.8577L4.06709 6.5712L0.473602 2.27169C0.358022 2.15184 0.265105 2.00577 0.200663 1.84264C0.136221 1.6795 0.101641 1.5028 0.0990832 1.32358C0.0965259 1.14437 0.126046 0.966491 0.1858 0.801083C0.245554 0.635676 0.334256 0.486294 0.446356 0.362278C0.558457 0.238262 0.691545 0.142279 0.837298 0.0803364C0.983051 0.0183934 1.13833 -0.00817843 1.29343 0.00228107C1.44853 0.0127406 1.60011 0.0600077 1.73869 0.141126C1.87727 0.222243 1.99987 0.335466 2.09883 0.473715L6.46073 5.68524C6.65997 5.92351 6.77319 6.24027 6.77741 6.5712Z" fill="#121212"/>
</svg>
