<svg width="172" height="43" viewBox="0 0 172 43" fill="none" xmlns="http://www.w3.org/2000/svg">
<path d="M64.0452 9.20019L61.2008 14.5051H66.8722L64.0452 9.20019ZM58.4959 19.5483H54.3078L61.2706 6.54772H66.8198L73.7651 19.5483H69.577L68.3206 17.1925H59.7524L58.4959 19.5483ZM87.304 11.7305C87.3156 11.6956 87.3214 11.6433 87.3214 11.5735V10.5788C87.3098 10.5555 87.304 10.5322 87.304 10.509C87.304 10.4741 87.2982 10.445 87.2865 10.4217V10.4043C87.2865 10.3694 87.2749 10.317 87.2516 10.2472V10.2298C87.2284 10.16 87.2109 10.1134 87.1993 10.0902C87.1993 10.0785 87.1935 10.0669 87.1818 10.0553L87.1295 9.95057C87.1062 9.9273 87.0888 9.90403 87.0771 9.88076C87.0655 9.8575 87.0539 9.83423 87.0422 9.81096L86.9899 9.75861C86.9666 9.73534 86.9492 9.71208 86.9375 9.68881C86.9142 9.67717 86.8852 9.65391 86.8503 9.61901C86.8386 9.61901 86.8212 9.60737 86.7979 9.5841C86.4838 9.35143 85.9952 9.23509 85.3321 9.23509H78.5264V13.0393H85.6636C85.6869 13.0393 85.716 13.0393 85.7509 13.0393C85.7858 13.0277 85.8149 13.0219 85.8381 13.0219H85.873C85.9661 13.0102 86.0534 12.9928 86.1348 12.9695C86.2279 12.9462 86.3093 12.923 86.3791 12.8997H86.414C86.6699 12.8183 86.8793 12.6728 87.0422 12.4634C87.0655 12.4402 87.0771 12.4227 87.0771 12.4111C87.0888 12.3995 87.1062 12.382 87.1295 12.3587V12.3238C87.1993 12.2308 87.2516 12.1028 87.2865 11.9399V11.905C87.2982 11.8818 87.304 11.8352 87.304 11.7654V11.7305ZM90.7941 9.81096V12.2017C90.7941 12.2598 90.7941 12.3238 90.7941 12.3936C90.7941 12.4518 90.7883 12.51 90.7766 12.5681V12.6554C90.765 12.7136 90.7534 12.7717 90.7417 12.8299C90.7417 12.8881 90.7359 12.9462 90.7243 13.0044C90.7243 13.016 90.7185 13.0277 90.7068 13.0393C90.7068 13.0393 90.7068 13.0451 90.7068 13.0568C90.637 13.3941 90.5207 13.7082 90.3578 13.9991C90.3462 14.0107 90.3404 14.0223 90.3404 14.034C90.3404 14.034 90.3345 14.0398 90.3229 14.0514C90.2996 14.098 90.2706 14.1445 90.2357 14.191C90.2124 14.2259 90.1833 14.2667 90.1484 14.3132L90.0961 14.3655C89.8285 14.6913 89.4678 14.9705 89.0141 15.2032C88.9909 15.2032 88.9676 15.2148 88.9443 15.2381C88.8629 15.2846 88.7524 15.3253 88.6128 15.3602C88.6128 15.3602 88.5895 15.3719 88.543 15.3951C88.1823 15.5115 87.7693 15.5987 87.304 15.6569C87.2923 15.6685 87.2749 15.6743 87.2516 15.6743C87.1702 15.686 87.0946 15.6918 87.0248 15.6918C86.955 15.6918 86.8793 15.6976 86.7979 15.7092H86.6932C86.6118 15.7209 86.5303 15.7267 86.4489 15.7267C86.3675 15.7267 86.286 15.7267 86.2046 15.7267H78.5264V19.5483H74.5651V6.54772H86.0301V6.56517C87.5541 6.53027 88.7291 6.80948 89.5551 7.40279C89.6016 7.44933 89.6365 7.47841 89.6598 7.49004C89.7529 7.55985 89.8227 7.61801 89.8692 7.66455C89.8925 7.68782 89.9157 7.7169 89.939 7.7518C89.9623 7.77507 89.9855 7.79834 90.0088 7.8216L90.131 7.94376C90.2008 8.03683 90.2473 8.10663 90.2706 8.15316C90.2938 8.17643 90.3171 8.21133 90.3404 8.25787C90.3636 8.3044 90.3869 8.35094 90.4102 8.39747C90.4334 8.43237 90.4567 8.47891 90.48 8.53707C90.4916 8.54871 90.4974 8.56034 90.4974 8.57198C90.4974 8.58361 90.5032 8.59524 90.5149 8.60688C90.5381 8.66504 90.5556 8.7174 90.5672 8.76393C90.5905 8.81047 90.6138 8.86282 90.637 8.92099C90.637 8.95589 90.6428 8.97915 90.6545 8.99079C90.6777 9.04896 90.6894 9.11294 90.6894 9.18274C90.701 9.24091 90.7126 9.29908 90.7243 9.35725C90.7359 9.36888 90.7417 9.38052 90.7417 9.39215C90.7534 9.46195 90.7592 9.53175 90.7592 9.60155C90.7708 9.67136 90.7766 9.74116 90.7766 9.81096H90.7941ZM113.265 6.54772V19.5483H109.304V9.89821L104.139 19.5483H101.347L96.1814 9.89821V19.5483H92.2201V6.54772H98.5721L102.743 14.3481L106.913 6.54772H113.265ZM123.793 9.20019L120.948 14.5051H126.62L123.793 9.20019ZM118.243 19.5483H114.055L121.018 6.54772H126.567L133.513 19.5483H129.325L128.068 17.1925H119.5L118.243 19.5483ZM146.528 16.861V9.25255H139.321C139.321 9.54339 139.315 9.82841 139.303 10.1076C139.303 10.3868 139.303 10.6719 139.303 10.9627C139.303 11.1023 139.298 11.3408 139.286 11.6782C139.286 12.0039 139.28 12.3529 139.269 12.7252C139.257 13.0858 139.245 13.429 139.234 13.7548C139.234 14.0805 139.228 14.3074 139.216 14.4353C139.193 14.6913 139.164 14.9356 139.129 15.1683C139.106 15.4009 139.077 15.6162 139.042 15.8139C138.995 16.035 138.949 16.2327 138.902 16.4072C138.856 16.5701 138.797 16.7214 138.728 16.861H146.528ZM135.237 16.861C135.307 16.7097 135.371 16.541 135.429 16.3549C135.488 16.1688 135.54 15.9594 135.587 15.7267C135.633 15.494 135.668 15.2322 135.691 14.9414C135.726 14.6506 135.755 14.3365 135.778 13.9991C135.79 13.8246 135.796 13.5512 135.796 13.1789C135.808 12.795 135.819 12.3878 135.831 11.9574C135.842 11.5269 135.848 11.1081 135.848 10.7009C135.86 10.2938 135.866 9.97383 135.866 9.74116C135.877 9.27581 135.883 8.78138 135.883 8.25787C135.895 7.73435 135.901 7.17012 135.901 6.56517H150.018V16.861H151.815V21.4155H148.465V19.5483H137.157V21.4155H133.824V16.861H135.237ZM161.778 9.20019L158.934 14.5051H164.605L161.778 9.20019ZM156.229 19.5483H152.041L159.004 6.54772H164.553L171.498 19.5483H167.31L166.054 17.1925H157.485L156.229 19.5483Z" fill="white"/>
<path d="M84.7414 32.5918C85.5659 32.7845 85.9782 33.2815 85.9782 34.0829C85.9782 34.6146 85.7817 35.023 85.3887 35.3082C84.9957 35.5933 84.41 35.7358 83.6317 35.7358H80.8691V29.6559H83.5508C84.2443 29.6559 84.7876 29.7907 85.1806 30.0604C85.5736 30.3301 85.7701 30.7154 85.7701 31.2163C85.7701 31.5477 85.6776 31.8328 85.4927 32.0717C85.3155 32.3029 85.065 32.4762 84.7414 32.5918ZM81.6667 32.3606H83.493C83.9631 32.3606 84.3214 32.272 84.568 32.0948C84.8223 31.9176 84.9494 31.6594 84.9494 31.3203C84.9494 30.9813 84.8223 30.727 84.568 30.5575C84.3214 30.3879 83.9631 30.3032 83.493 30.3032H81.6667V32.3606ZM83.597 35.0885C84.121 35.0885 84.514 35.0038 84.776 34.8342C85.038 34.6647 85.169 34.3989 85.169 34.0367C85.169 33.6745 85.0496 33.4087 84.8107 33.2391C84.5718 33.0619 84.1942 32.9733 83.6779 32.9733H81.6667V35.0885H83.597ZM93.2186 32.9502H88.1327C88.179 33.582 88.4217 34.0945 88.8609 34.4875C89.3002 34.8728 89.855 35.0654 90.5254 35.0654C90.903 35.0654 91.2498 34.9999 91.5657 34.8689C91.8816 34.7302 92.1552 34.5299 92.3864 34.2679L92.8487 34.7996C92.579 35.1232 92.24 35.3698 91.8316 35.5393C91.4309 35.7089 90.9878 35.7936 90.5023 35.7936C89.8781 35.7936 89.3233 35.6626 88.8378 35.4006C88.36 35.1309 87.9863 34.761 87.7166 34.291C87.4469 33.8209 87.312 33.2892 87.312 32.6959C87.312 32.1025 87.4392 31.5708 87.6935 31.1007C87.9555 30.6307 88.31 30.2646 88.7569 30.0026C89.2115 29.7406 89.7201 29.6096 90.2827 29.6096C90.8452 29.6096 91.3499 29.7406 91.7969 30.0026C92.2438 30.2646 92.5944 30.6307 92.8487 31.1007C93.103 31.5631 93.2302 32.0948 93.2302 32.6959L93.2186 32.9502ZM90.2827 30.3147C89.697 30.3147 89.2038 30.5035 88.8031 30.8811C88.4101 31.251 88.1867 31.7365 88.1327 32.3375H92.4442C92.3902 31.7365 92.1629 31.251 91.7622 30.8811C91.3692 30.5035 90.876 30.3147 90.2827 30.3147ZM97.9943 29.8061C98.5569 29.8061 99.0578 29.9333 99.497 30.1876C99.9439 30.4342 100.291 30.7848 100.537 31.2394C100.784 31.6864 100.907 32.1988 100.907 32.7768C100.907 33.3701 100.776 33.898 100.514 34.3603C100.26 34.815 99.9016 35.1695 99.4392 35.4238C98.9768 35.678 98.4451 35.8052 97.8441 35.8052C96.8346 35.8052 96.0524 35.4507 95.4976 34.7418C94.9428 34.0328 94.6654 33.0542 94.6654 31.8058C94.6654 30.5035 94.912 29.5056 95.4051 28.8121C95.906 28.1185 96.6843 27.6485 97.74 27.4019L100.468 26.7777L100.607 27.529L98.0406 28.1185C97.1698 28.3112 96.5302 28.6541 96.1218 29.1473C95.7134 29.6328 95.4899 30.3533 95.4514 31.3088C95.698 30.8387 96.0409 30.4727 96.4801 30.2107C96.9194 29.941 97.4241 29.8061 97.9943 29.8061ZM97.8672 35.1232C98.291 35.1232 98.6686 35.0269 99 34.8342C99.339 34.6339 99.601 34.3565 99.786 34.002C99.9786 33.6475 100.075 33.2468 100.075 32.7999C100.075 32.3529 99.9825 31.9599 99.7975 31.6209C99.6126 31.2818 99.3506 31.0198 99.0115 30.8349C98.6802 30.6422 98.2987 30.5459 97.8672 30.5459C97.4357 30.5459 97.0504 30.6422 96.7113 30.8349C96.3799 31.0198 96.1179 31.2818 95.9253 31.6209C95.7404 31.9599 95.6479 32.3529 95.6479 32.7999C95.6479 33.2468 95.7404 33.6475 95.9253 34.002C96.1179 34.3565 96.3838 34.6339 96.7229 34.8342C97.0619 35.0269 97.4434 35.1232 97.8672 35.1232ZM102.305 32.2451H105.334V32.9617H102.305V32.2451ZM109.849 35.7936C109.247 35.7936 108.708 35.6626 108.23 35.4006C107.76 35.1386 107.39 34.7726 107.121 34.3025C106.851 33.8248 106.716 33.2892 106.716 32.6959C106.716 32.1025 106.851 31.5708 107.121 31.1007C107.39 30.6307 107.76 30.2646 108.23 30.0026C108.708 29.7406 109.247 29.6096 109.849 29.6096C110.373 29.6096 110.839 29.7137 111.247 29.9217C111.663 30.1221 111.991 30.4188 112.23 30.8118L111.617 31.2279C111.417 30.9273 111.162 30.7039 110.854 30.5575C110.546 30.4033 110.211 30.3263 109.849 30.3263C109.409 30.3263 109.012 30.4265 108.658 30.6268C108.311 30.8195 108.038 31.0969 107.837 31.4591C107.645 31.8212 107.548 32.2335 107.548 32.6959C107.548 33.1659 107.645 33.582 107.837 33.9442C108.038 34.2987 108.311 34.5761 108.658 34.7765C109.012 34.9691 109.409 35.0654 109.849 35.0654C110.211 35.0654 110.546 34.9922 110.854 34.8458C111.162 34.6994 111.417 34.4759 111.617 34.1754L112.23 34.5915C111.991 34.9845 111.663 35.285 111.247 35.4931C110.831 35.6935 110.365 35.7936 109.849 35.7936ZM117.983 30.3841H115.682V35.7358H114.862V30.3841H112.562V29.6559H117.983V30.3841ZM124.359 29.6559L121.319 36.464C121.072 37.0343 120.787 37.4388 120.463 37.6777C120.14 37.9166 119.75 38.0361 119.296 38.0361C119.003 38.0361 118.729 37.9898 118.475 37.8974C118.221 37.8049 118.001 37.6662 117.816 37.4812L118.198 36.8686C118.506 37.1768 118.876 37.331 119.307 37.331C119.585 37.331 119.82 37.2539 120.012 37.0998C120.213 36.9457 120.398 36.6837 120.567 36.3138L120.833 35.7243L118.117 29.6559H118.972L121.261 34.8227L123.549 29.6559H124.359ZM131.296 35.0192V37.2038H130.522V35.7358H125.077V37.2038H124.303V35.0192H124.65C125.058 34.9961 125.335 34.6955 125.482 34.1176C125.628 33.5397 125.728 32.7305 125.782 31.6902L125.863 29.6559H130.348V35.0192H131.296ZM126.534 31.7365C126.495 32.5995 126.422 33.3123 126.314 33.8749C126.206 34.4297 126.014 34.8111 125.736 35.0192H129.527V30.3841H126.603L126.534 31.7365ZM132.895 29.6559H133.716V34.4875L137.773 29.6559H138.501V35.7358H137.681V30.9042L133.635 35.7358H132.895V29.6559ZM145.523 29.6559V35.7358H144.772V33.7246H142.865H142.633L141.223 35.7358H140.333L141.847 33.609C141.377 33.478 141.015 33.2545 140.761 32.9386C140.507 32.6226 140.379 32.2219 140.379 31.7365C140.379 31.0583 140.611 30.5421 141.073 30.1876C141.535 29.8331 142.167 29.6559 142.969 29.6559H145.523ZM141.212 31.7596C141.212 32.6612 141.786 33.112 142.934 33.112H144.772V30.3841H142.992C141.805 30.3841 141.212 30.8426 141.212 31.7596Z" fill="white"/>
<path d="M18.655 17.4064V6.3623L0 19.1111V30.2512L18.655 17.4064Z" fill="url(#paint0_linear_3_6679)"/>
<path d="M18.655 31.9559V43L0 30.2512V19.1111L18.655 31.9559Z" fill="white"/>
<path d="M24.2972 25.5936V36.6377L42.9521 23.8889V12.7488L24.2972 25.5936Z" fill="url(#paint1_linear_3_6679)"/>
<path d="M24.2972 11.0441V0L42.9521 12.7488V23.8889L24.2972 11.0441Z" fill="white"/>
<defs>
<linearGradient id="paint0_linear_3_6679" x1="19.3962" y1="22.1848" x2="4.60972" y2="13.601" gradientUnits="userSpaceOnUse">
<stop offset="0.5" stop-color="#B1D130"/>
<stop offset="1" stop-color="#D8FF3A"/>
</linearGradient>
<linearGradient id="paint1_linear_3_6679" x1="23.556" y1="20.8152" x2="38.3424" y2="29.399" gradientUnits="userSpaceOnUse">
<stop offset="0.5" stop-color="#B1D130"/>
<stop offset="1" stop-color="#D8FF3A"/>
</linearGradient>
</defs>
</svg>
