<svg aria-hidden="true" xmlns="http://www.w3.org/2000/svg" xmlns:xlink="http://www.w3.org/1999/xlink"><symbol viewBox="0 0 12 12" fill="none" id="icon-max" xmlns="http://www.w3.org/2000/svg">
<path fill-rule="evenodd" clip-rule="evenodd" d="M6.12892 11.9658C4.95127 11.9658 4.404 11.7931 3.45271 11.1024C2.85099 11.8794 0.945556 12.4866 0.862462 11.4478C0.862462 10.6679 0.690542 10.0089 0.4957 9.28943C0.263609 8.40308 0 7.41601 0 5.98576C0 2.56985 2.79082 0 6.0974 0C9.40685 0 12 2.69647 12 6.01741C12.0111 9.287 9.38434 11.9483 6.12892 11.9658ZM6.17763 2.95259C4.56732 2.86913 3.31231 3.98859 3.03437 5.74402C2.80515 7.1973 3.21202 8.96712 3.55873 9.05921C3.72492 9.0995 4.14325 8.75992 4.404 8.49805C4.83515 8.79719 5.33723 8.97686 5.85958 9.01892C7.52813 9.09953 8.95384 7.82374 9.06588 6.14979C9.1311 4.47229 7.84641 3.05146 6.17763 2.95547L6.17763 2.95259Z" fill="currentColor"/>
</symbol><symbol viewBox="0 0 21 21" fill="none" id="icon-tel" xmlns="http://www.w3.org/2000/svg">
  <path d="M16.8235 20.9996C15.9085 20.9996 14.6232 20.6686 12.6985 19.5933C10.3581 18.2808 8.54774 17.0691 6.21993 14.7474C3.97555 12.5044 2.88337 11.0522 1.35477 8.27066C-0.372103 5.13003 -0.0777282 3.48378 0.251334 2.78019C0.643209 1.93925 1.22165 1.43628 1.9693 0.937065C2.39397 0.658832 2.84337 0.420323 3.3118 0.224565C3.35868 0.204409 3.40227 0.18519 3.44118 0.167846C3.67321 0.0633151 4.02477 -0.0946537 4.47008 0.0740963C4.76727 0.185659 5.03258 0.41394 5.4479 0.824096C6.29962 1.6641 7.46352 3.53488 7.8929 4.45363C8.18118 5.07285 8.37196 5.4816 8.37243 5.94003C8.37243 6.47675 8.10243 6.89066 7.77477 7.33738C7.71337 7.42128 7.65243 7.50144 7.59337 7.57925C7.23665 8.048 7.15837 8.18347 7.20993 8.42535C7.31446 8.91144 8.09399 10.3585 9.37508 11.6368C10.6562 12.915 12.0615 13.6453 12.5495 13.7494C12.8016 13.8033 12.9399 13.7218 13.4237 13.3524C13.4931 13.2994 13.5643 13.2446 13.6388 13.1897C14.1385 12.818 14.5332 12.555 15.0573 12.555H15.0601C15.5162 12.555 15.9066 12.7528 16.5535 13.0791C17.3973 13.5047 19.3243 14.6536 20.1695 15.5063C20.5806 15.9207 20.8098 16.185 20.9218 16.4818C21.0906 16.9285 20.9316 17.2786 20.8281 17.513C20.8107 17.5519 20.7915 17.5946 20.7713 17.6419C20.574 18.1095 20.3341 18.558 20.0546 18.9816C19.5563 19.7269 19.0515 20.3039 18.2087 20.6963C17.7759 20.901 17.3023 21.0047 16.8235 20.9996Z" fill="currentColor"/>
</symbol><symbol viewBox="0 0 15 13" fill="none" id="icon-tg" xmlns="http://www.w3.org/2000/svg">
<path d="M13.6212 0.0805296L0.682082 5.07014C-0.200976 5.42485 -0.195869 5.91744 0.520029 6.13715L3.84207 7.17341L11.5282 2.32392C11.8917 2.10281 12.2237 2.22178 11.9508 2.46404L5.72346 8.08419L5.49429 11.5091C5.83002 11.5091 5.9782 11.3552 6.16645 11.1734L7.78 9.60435L11.1364 12.0834C11.7552 12.4243 12.1997 12.2491 12.3537 11.5105L14.5568 1.12709C14.7824 0.222897 14.2116 -0.186535 13.6212 0.0805296Z" fill="currentColor"/>
</symbol></svg>