<svg width="172" height="43" viewBox="0 0 172 43" fill="none" xmlns="http://www.w3.org/2000/svg">
<path d="M64.0452 9.20013L61.2008 14.5051H66.8722L64.0452 9.20013ZM58.4959 19.5483H54.3078L61.2706 6.54765H66.8198L73.7651 19.5483H69.577L68.3206 17.1925H59.7524L58.4959 19.5483ZM87.304 11.7305C87.3156 11.6956 87.3214 11.6432 87.3214 11.5734V10.5787C87.3098 10.5555 87.304 10.5322 87.304 10.5089C87.304 10.474 87.2982 10.4449 87.2865 10.4217V10.4042C87.2865 10.3693 87.2749 10.317 87.2516 10.2472V10.2297C87.2284 10.1599 87.2109 10.1134 87.1993 10.0901C87.1993 10.0785 87.1935 10.0668 87.1818 10.0552L87.1295 9.9505C87.1062 9.92723 87.0888 9.90397 87.0771 9.8807C87.0655 9.85743 87.0539 9.83417 87.0422 9.8109L86.9899 9.75855C86.9666 9.73528 86.9492 9.71201 86.9375 9.68875C86.9142 9.67711 86.8852 9.65384 86.8503 9.61894C86.8386 9.61894 86.8212 9.60731 86.7979 9.58404C86.4838 9.35137 85.9952 9.23503 85.3321 9.23503H78.5264V13.0392H85.6636C85.6869 13.0392 85.716 13.0392 85.7509 13.0392C85.7858 13.0276 85.8149 13.0218 85.8381 13.0218H85.873C85.9661 13.0102 86.0534 12.9927 86.1348 12.9694C86.2279 12.9462 86.3093 12.9229 86.3791 12.8996H86.414C86.6699 12.8182 86.8793 12.6728 87.0422 12.4634C87.0655 12.4401 87.0771 12.4227 87.0771 12.411C87.0888 12.3994 87.1062 12.3819 87.1295 12.3587V12.3238C87.1993 12.2307 87.2516 12.1027 87.2865 11.9399V11.905C87.2982 11.8817 87.304 11.8352 87.304 11.7654V11.7305ZM90.7941 9.8109V12.2016C90.7941 12.2598 90.7941 12.3238 90.7941 12.3936C90.7941 12.4517 90.7883 12.5099 90.7766 12.5681V12.6553C90.765 12.7135 90.7534 12.7717 90.7417 12.8298C90.7417 12.888 90.7359 12.9462 90.7243 13.0043C90.7243 13.016 90.7185 13.0276 90.7068 13.0392C90.7068 13.0392 90.7068 13.0451 90.7068 13.0567C90.637 13.3941 90.5207 13.7082 90.3578 13.999C90.3462 14.0107 90.3404 14.0223 90.3404 14.0339C90.3404 14.0339 90.3345 14.0397 90.3229 14.0514C90.2996 14.0979 90.2706 14.1444 90.2357 14.191C90.2124 14.2259 90.1833 14.2666 90.1484 14.3131L90.0961 14.3655C89.8285 14.6912 89.4678 14.9704 89.0141 15.2031C88.9909 15.2031 88.9676 15.2147 88.9443 15.238C88.8629 15.2845 88.7524 15.3253 88.6128 15.3602C88.6128 15.3602 88.5895 15.3718 88.543 15.3951C88.1823 15.5114 87.7693 15.5986 87.304 15.6568C87.2923 15.6684 87.2749 15.6743 87.2516 15.6743C87.1702 15.6859 87.0946 15.6917 87.0248 15.6917C86.955 15.6917 86.8793 15.6975 86.7979 15.7092H86.6932C86.6118 15.7208 86.5303 15.7266 86.4489 15.7266C86.3675 15.7266 86.286 15.7266 86.2046 15.7266H78.5264V19.5483H74.5651V6.54765H86.0301V6.56511C87.5541 6.5302 88.7291 6.80941 89.5551 7.40273C89.6016 7.44926 89.6365 7.47835 89.6598 7.48998C89.7529 7.55978 89.8227 7.61795 89.8692 7.66449C89.8925 7.68775 89.9157 7.71684 89.939 7.75174C89.9623 7.77501 89.9855 7.79827 90.0088 7.82154L90.131 7.94369C90.2008 8.03676 90.2473 8.10657 90.2706 8.1531C90.2938 8.17637 90.3171 8.21127 90.3404 8.2578C90.3636 8.30434 90.3869 8.35087 90.4102 8.39741C90.4334 8.43231 90.4567 8.47884 90.48 8.53701C90.4916 8.54865 90.4974 8.56028 90.4974 8.57191C90.4974 8.58355 90.5032 8.59518 90.5149 8.60681C90.5381 8.66498 90.5556 8.71733 90.5672 8.76387C90.5905 8.8104 90.6138 8.86275 90.637 8.92092C90.637 8.95582 90.6428 8.97909 90.6545 8.99072C90.6777 9.04889 90.6894 9.11288 90.6894 9.18268C90.701 9.24085 90.7126 9.29902 90.7243 9.35718C90.7359 9.36882 90.7417 9.38045 90.7417 9.39209C90.7534 9.46189 90.7592 9.53169 90.7592 9.60149C90.7708 9.67129 90.7766 9.7411 90.7766 9.8109H90.7941ZM113.265 6.54765V19.5483H109.304V9.89815L104.139 19.5483H101.347L96.1814 9.89815V19.5483H92.2201V6.54765H98.5721L102.743 14.348L106.913 6.54765H113.265ZM123.793 9.20013L120.948 14.5051H126.62L123.793 9.20013ZM118.243 19.5483H114.055L121.018 6.54765H126.567L133.513 19.5483H129.325L128.068 17.1925H119.5L118.243 19.5483ZM146.528 16.8609V9.25248H139.321C139.321 9.54332 139.315 9.82835 139.303 10.1076C139.303 10.3868 139.303 10.6718 139.303 10.9626C139.303 11.1022 139.298 11.3407 139.286 11.6781C139.286 12.0038 139.28 12.3529 139.269 12.7251C139.257 13.0858 139.245 13.429 139.234 13.7547C139.234 14.0805 139.228 14.3073 139.216 14.4353C139.193 14.6912 139.164 14.9355 139.129 15.1682C139.106 15.4009 139.077 15.6161 139.042 15.8139C138.995 16.0349 138.949 16.2327 138.902 16.4072C138.856 16.5701 138.797 16.7213 138.728 16.8609H146.528ZM135.237 16.8609C135.307 16.7097 135.371 16.541 135.429 16.3548C135.488 16.1687 135.54 15.9593 135.587 15.7266C135.633 15.4939 135.668 15.2322 135.691 14.9413C135.726 14.6505 135.755 14.3364 135.778 13.999C135.79 13.8245 135.796 13.5511 135.796 13.1788C135.808 12.7949 135.819 12.3878 135.831 11.9573C135.842 11.5269 135.848 11.1081 135.848 10.7009C135.86 10.2937 135.866 9.97377 135.866 9.7411C135.877 9.27575 135.883 8.78132 135.883 8.2578C135.895 7.73429 135.901 7.17006 135.901 6.56511H150.018V16.8609H151.815V21.4155H148.465V19.5483H137.157V21.4155H133.824V16.8609H135.237ZM161.778 9.20013L158.934 14.5051H164.605L161.778 9.20013ZM156.229 19.5483H152.041L159.004 6.54765H164.553L171.498 19.5483H167.31L166.054 17.1925H157.485L156.229 19.5483Z" fill="#121212"/>
<path d="M84.7411 32.592C85.5657 32.7847 85.9779 33.2817 85.9779 34.0831C85.9779 34.6148 85.7814 35.0232 85.3884 35.3083C84.9954 35.5935 84.4098 35.736 83.6315 35.736H80.8689V29.656H83.5506C84.2441 29.656 84.7874 29.7909 85.1804 30.0606C85.5734 30.3303 85.7699 30.7156 85.7699 31.2165C85.7699 31.5479 85.6774 31.833 85.4924 32.0719C85.3152 32.303 85.0648 32.4764 84.7411 32.592ZM81.6665 32.3608H83.4928C83.9628 32.3608 84.3211 32.2722 84.5677 32.095C84.822 31.9177 84.9492 31.6596 84.9492 31.3205C84.9492 30.9815 84.822 30.7272 84.5677 30.5576C84.3211 30.3881 83.9628 30.3033 83.4928 30.3033H81.6665V32.3608ZM83.5968 35.0887C84.1208 35.0887 84.5138 35.004 84.7758 34.8344C85.0378 34.6649 85.1688 34.399 85.1688 34.0369C85.1688 33.6747 85.0494 33.4088 84.8105 33.2393C84.5716 33.0621 84.194 32.9734 83.6777 32.9734H81.6665V35.0887H83.5968ZM93.2184 32.9503H88.1325C88.1787 33.5822 88.4214 34.0947 88.8607 34.4877C89.2999 34.873 89.8547 35.0656 90.5252 35.0656C90.9028 35.0656 91.2495 35.0001 91.5655 34.8691C91.8814 34.7304 92.155 34.53 92.3861 34.268L92.8485 34.7998C92.5788 35.1234 92.2397 35.37 91.8313 35.5395C91.4306 35.709 90.9875 35.7938 90.502 35.7938C89.8779 35.7938 89.323 35.6628 88.8376 35.4008C88.3598 35.1311 87.9861 34.7612 87.7164 34.2912C87.4466 33.8211 87.3118 33.2894 87.3118 32.696C87.3118 32.1027 87.4389 31.571 87.6932 31.1009C87.9552 30.6308 88.3097 30.2648 88.7567 30.0028C89.2113 29.7408 89.7199 29.6098 90.2824 29.6098C90.845 29.6098 91.3497 29.7408 91.7966 30.0028C92.2436 30.2648 92.5942 30.6308 92.8485 31.1009C93.1028 31.5633 93.2299 32.095 93.2299 32.696L93.2184 32.9503ZM90.2824 30.3149C89.6968 30.3149 89.2036 30.5037 88.8029 30.8813C88.4099 31.2512 88.1864 31.7366 88.1325 32.3377H92.4439C92.39 31.7366 92.1627 31.2512 91.762 30.8813C91.369 30.5037 90.8758 30.3149 90.2824 30.3149ZM97.9941 29.8063C98.5566 29.8063 99.0575 29.9335 99.4967 30.1878C99.9437 30.4343 100.29 30.785 100.537 31.2396C100.784 31.6866 100.907 32.199 100.907 32.7769C100.907 33.3703 100.776 33.8982 100.514 34.3605C100.26 34.8152 99.9013 35.1696 99.439 35.4239C98.9766 35.6782 98.4449 35.8054 97.8438 35.8054C96.8344 35.8054 96.0522 35.4509 95.4974 34.742C94.9426 34.033 94.6651 33.0544 94.6651 31.806C94.6651 30.5037 94.9117 29.5058 95.4049 28.8123C95.9058 28.1187 96.6841 27.6487 97.7398 27.4021L100.468 26.7779L100.606 27.5292L98.0403 28.1187C97.1696 28.3114 96.53 28.6543 96.1216 29.1475C95.7131 29.6329 95.4897 30.3534 95.4511 31.309C95.6977 30.8389 96.0406 30.4729 96.4799 30.2109C96.9191 29.9412 97.4239 29.8063 97.9941 29.8063ZM97.8669 35.1234C98.2908 35.1234 98.6684 35.0271 98.9997 34.8344C99.3388 34.6341 99.6008 34.3567 99.7857 34.0022C99.9784 33.6477 100.075 33.247 100.075 32.8001C100.075 32.3531 99.9822 31.9601 99.7973 31.6211C99.6123 31.282 99.3503 31.02 99.0113 30.8351C98.6799 30.6424 98.2985 30.5461 97.8669 30.5461C97.4354 30.5461 97.0501 30.6424 96.7111 30.8351C96.3797 31.02 96.1177 31.282 95.9251 31.6211C95.7401 31.9601 95.6476 32.3531 95.6476 32.8001C95.6476 33.247 95.7401 33.6477 95.9251 34.0022C96.1177 34.3567 96.3836 34.6341 96.7226 34.8344C97.0617 35.0271 97.4431 35.1234 97.8669 35.1234ZM102.305 32.2452H105.333V32.9619H102.305V32.2452ZM109.848 35.7938C109.247 35.7938 108.708 35.6628 108.23 35.4008C107.76 35.1388 107.39 34.7728 107.12 34.3027C106.851 33.825 106.716 33.2894 106.716 32.696C106.716 32.1027 106.851 31.571 107.12 31.1009C107.39 30.6308 107.76 30.2648 108.23 30.0028C108.708 29.7408 109.247 29.6098 109.848 29.6098C110.372 29.6098 110.838 29.7138 111.247 29.9219C111.663 30.1223 111.991 30.4189 112.229 30.8119L111.617 31.2281C111.416 30.9275 111.162 30.7041 110.854 30.5576C110.546 30.4035 110.21 30.3265 109.848 30.3265C109.409 30.3265 109.012 30.4266 108.658 30.627C108.311 30.8196 108.037 31.0971 107.837 31.4592C107.644 31.8214 107.548 32.2337 107.548 32.696C107.548 33.1661 107.644 33.5822 107.837 33.9444C108.037 34.2989 108.311 34.5763 108.658 34.7766C109.012 34.9693 109.409 35.0656 109.848 35.0656C110.21 35.0656 110.546 34.9924 110.854 34.846C111.162 34.6996 111.416 34.4761 111.617 34.1756L112.229 34.5917C111.991 34.9847 111.663 35.2852 111.247 35.4933C110.831 35.6936 110.365 35.7938 109.848 35.7938ZM117.982 30.3843H115.682V35.736H114.861V30.3843H112.561V29.656H117.982V30.3843ZM124.358 29.656L121.318 36.4642C121.072 37.0345 120.787 37.439 120.463 37.6779C120.139 37.9168 119.75 38.0362 119.296 38.0362C119.003 38.0362 118.729 37.99 118.475 37.8975C118.221 37.8051 118.001 37.6664 117.816 37.4814L118.197 36.8688C118.506 37.177 118.876 37.3311 119.307 37.3311C119.585 37.3311 119.82 37.2541 120.012 37.1C120.213 36.9458 120.398 36.6838 120.567 36.314L120.833 35.7245L118.117 29.656H118.972L121.261 34.8229L123.549 29.656H124.358ZM131.296 35.0194V37.204H130.521V35.736H125.077V37.204H124.303V35.0194H124.649C125.058 34.9963 125.335 34.6957 125.482 34.1178C125.628 33.5398 125.728 32.7307 125.782 31.6904L125.863 29.656H130.348V35.0194H131.296ZM126.534 31.7366C126.495 32.5997 126.422 33.3125 126.314 33.875C126.206 34.4299 126.013 34.8113 125.736 35.0194H129.527V30.3843H126.603L126.534 31.7366ZM132.895 29.656H133.716V34.4877L137.773 29.656H138.501V35.736H137.681V30.9044L133.635 35.736H132.895V29.656ZM145.523 29.656V35.736H144.772V33.7248H142.864H142.633L141.223 35.736H140.333L141.847 33.6092C141.377 33.4782 141.015 33.2547 140.761 32.9388C140.506 32.6228 140.379 32.2221 140.379 31.7366C140.379 31.0585 140.61 30.5422 141.073 30.1878C141.535 29.8333 142.167 29.656 142.968 29.656H145.523ZM141.211 31.7598C141.211 32.6614 141.786 33.1122 142.934 33.1122H144.772V30.3843H142.992C141.805 30.3843 141.211 30.8428 141.211 31.7598Z" fill="#121212"/>
<path d="M18.655 17.4065V6.36239L0 19.1111V30.2513L18.655 17.4065Z" fill="url(#paint0_linear_3_5185)"/>
<path d="M18.655 31.9559V43L0 30.2513V19.1111L18.655 31.9559Z" fill="#121212"/>
<path d="M24.2972 25.5935V36.6376L42.9521 23.8889V12.7487L24.2972 25.5935Z" fill="url(#paint1_linear_3_5185)"/>
<path d="M24.2972 11.0441V0L42.9521 12.7488V23.8889L24.2972 11.0441Z" fill="#121212"/>
<defs>
<linearGradient id="paint0_linear_3_5185" x1="19.3962" y1="22.1849" x2="4.60972" y2="13.6011" gradientUnits="userSpaceOnUse">
<stop offset="0.5" stop-color="#B1D130"/>
<stop offset="1" stop-color="#D8FF3A"/>
</linearGradient>
<linearGradient id="paint1_linear_3_5185" x1="23.556" y1="20.8151" x2="38.3424" y2="29.3989" gradientUnits="userSpaceOnUse">
<stop offset="0.5" stop-color="#B1D130"/>
<stop offset="1" stop-color="#D8FF3A"/>
</linearGradient>
</defs>
</svg>
